---
title: "12.04 - cd ripped but mp3s don't play"
date: 2013-07-30
forum: Multimedia Software
---

### Post by D0natell0 on 2013-07-30
Hi,
I ripped a couple of cds using ripperX, but the mp3s don't play.
The clemantine player lists the files but won't play them.
gmusicbrowser doesn't even list the files, even after doing a rescan! :confused:

The files are definitely there in the folders.
I have other mp3s that play without trouble (converted on an old windows pc).

Any help gratefully received!

---

### Post by shantiq on 2013-07-30
ok  i seem to remember you need this installed


> sudo apt-get install gstreamer0.10-fluendo-mp3


try that first



you may also need if not installed




> sudo apt-get install gstreamer0.10-plugins-good gstreamer0.10-plugins-bad gstreamer0.10-plugins-ugly



and it certainly will not hurt to have those


> sudo apt-get install lame libmp3lame0 libmp3lame-dev



This should give full functionality in Clementine  you may not need ALL of these; see how you go [and please tell us how you get on for future users thanx]

---

### Post by D0natell0 on 2013-07-30
The only thing that wasn't already installed was the lame stuff.
Still no luck. Any more suggestions most appreciated, thanks.

---

### Post by shantiq on 2013-07-30
problem with your ripped files then maybe


what does mediainfo read them as   if you do not mind sharing that info


cd to folder and


> mediainfo   *.mp3


also do they play if you run    > mplayer *.mp3

---

### Post by mbabar96 on 2013-07-30
may be not ripped correctly use handbrake you can link one audio to here so that i can check?

---

### Post by lah7 on 2013-07-30
I would be sure that the mp3's that you ripped are messed up somehow. You could try using other music software, like **Banshee**, which offers the ability to rip music from CDs.

---

### Post by D0natell0 on 2013-07-31
I could try another app, but I expect something fundamental is wrong, and would like to understand what's wrong, if anyone can help.

First I tried mediainfo:
```
$ mediainfo -f 01*.mp3 
General
Count                                    : 278
Count of stream of this kind             : 1
Kind of stream                           : General
Kind of stream                           : General
Stream identifier                        : 0
Complete name                            : 01 - Is this love.mp3
File name                                : 01 - Is this love
File extension                           : mp3
File size                                : 2048
File size                                : 2.00 KiB
File size                                : 2 KiB
File size                                : 2.0 KiB
File size                                : 2.00 KiB
File size                                : 2.000 KiB
Stream size                              : 2048
Stream size                              : 2.00 KiB (100%)
Stream size                              : 2 KiB
Stream size                              : 2.0 KiB
Stream size                              : 2.00 KiB
Stream size                              : 2.000 KiB
Stream size                              : 2.00 KiB (100%)
Proportion of this stream                : 1.00000
File last modification date              : UTC 2013-06-29 21:56:08
File last modification date (local)      : 2013-06-29 22:56:08


```

Then I tried mplayer and got something looking more useful:
```

$ mplayer 01\ -\ Is\ this\ love.mp3 
Creating config file: /home/don/.mplayer/config
MPlayer svn r34540 (Ubuntu), built with gcc-4.6 (C) 2000-2012 MPlayer Team
mplayer: could not connect to socket
mplayer: No such file or directory
Failed to open LIRC support. You will not be able to use your remote control.

Playing 01 - Is this love.mp3.
libavformat version 53.21.1 (external)
Mismatching header version 53.19.0
libavformat file format detected.
[mp3 @ 0x10b73a0]Could not find codec parameters (Audio: mp3, 0 channels, s16)
[mp3 @ 0x10b73a0]Estimating duration from bitrate, this may be inaccurate
LAVF_header: av_find_stream_info() failed
```

Any ideas? Thanks.

---

### Post by shantiq on 2013-07-31
hi DOnatello 



there is nothing in your file

File size                                :> ** 2.00 KiB  !!**
File size                                : 2 KiB
File size                                : 2.0 KiB
File size                                : 2.00 KiB
File size                                : 2.000 KiB
Stream size                              : 2048
Stream size                              : 2.00 KiB (100%)
Stream size                              : 2 KiB
Stream size                              : 2.0 KiB
Stream size                              : 2.00 KiB
Stream size                              : 2.000 KiB
Stream size                              : 2.00 KiB (100%)
Proportion of this stream                : 1.00000

and (Audio: mp3, [COLOR=#ff0000][SIZE=3]**0!**[/SIZE][/COLOR] channels, s16)


so i know nothing about ripperx but something did not work there    [correction:now tried it on Ubuntu 13.04 where it works fine]

[B]Try another route:

[/B]put your disc again in cddrive and run  [simple way]   >  sudo apt-get install pacpl   then


> [COLOR=#222222][FONT=Verdana]mkdir  ~/Music/"Lianne la Havas" && pacpl  --outdir ~/Music/"Lianne la Havas" --rip all  -t  mp3 --bitrate 320[/FONT][/COLOR]


&#9679; change name of folder both times to describe **your** disc name where it says  [COLOR=#222222][FONT=Verdana]"Lianne la Havas"[/FONT][/COLOR]
&#9679;and change 320   if you want a lower number

&#9679;if you want flac instead change last bit to ```
-t  flac --fcomp 8
```


now run THOSE ripped files in clementine    and please tell us how you get on

---

### Post by JcDwLRs on 2013-07-31
sudo apt-get install xubuntu-restricted-extras

---

